<svg xmlns="http://www.w3.org/2000/svg" width="1303.937" height="1303.937" viewBox="0 0 345 345"><defs><clipPath id="b"><path fill="#c9c4be" stroke-width=".265" stroke-linecap="round" stroke-linejoin="round" d="M2.931 202.282h400.41v132.493H2.931z"/></clipPath><clipPath id="a"><path fill="#c9c4be" stroke-width=".265" stroke-linecap="round" stroke-linejoin="round" d="M4.168 58.648h375.161v273.183H4.168z"/></clipPath></defs><path fill="#6b7488" fill-opacity=".965" d="M0 0h345v345H0z"/><path d="M280.977 5.92l33.492 333.576-220.774-27.63-75.87-203.515z" fill="#faa0c3"/><g transform="translate(-9.142 .618)"><path d="M226.622 116.396c.124.942-.239 3.536-.154 4.644.762 9.894.11 25.595.11 25.595s-2.274 28.116-4.305 31.772c-3.085 4.059-14.216 12.072-17.146 15.294-8.886 9.775-9.693 10.428-23.375 10.967-11.158.104-14.816-2.814-21.659-10.137-2.256-2.372-19.35-13.649-20.93-16.534-2.843-10.085-3.135-21.48-4.355-32.045l.502-31.56.052-1.426 1.855-10.24 4.794-29.326 7.035-16.269 73.868 9.087 6.789 49.48-3.081.698" fill="#fef9ee" stroke="#000" stroke-width=".265"/><g clip-path="url(#a)" transform="translate(4.975 12.55)" stroke="#000" stroke-width=".265"><path clip-path="url(#b)" d="M15.226 331.818s1.704-53.496 15.334-74.343c28.643-33.51 92.919-51.602 92.919-51.602s16.7 25.658 46.1 24.054c24.664.014 39.703-8.012 49.047-23.253 38.69 10.341 59.225 14.983 87.398 27.53 13.096 6.681 26.152 38.949 26.152 38.949 9.14 20.699 11.82 49.024 11.366 58.73z" fill="#37284e"/><path d="M78.969 288.734s1.566 30.807 4.436 42.757c3.925 16.111-.83-3.317-.83-3.317M283.86 301.058l-4.559 30.875" fill="none"/></g><path d="M188.887 117.202s-.49.565-.106.014c1.015-1.463 1.974-2.732 3.613-3.937.419-.309 2.468-1.517 4.077-1.985 2.964-.862 6.465-.835 9.26-1.076 3.313-.247 6.685-1.046 10.052-1.01 1.65.017 4.914.599 4.914.599s-5.555-4.886-6.172-4.854c-5.318.28-17.857 1.798-17.857 1.798-.467.232-1.318 1.47-2.316 2.844-.654.9-1.25 1.941-1.844 2.774-.59.805-2.637 3.333-2.637 3.333zM177.458 117.037c-2.575-2.057-2.87-5.004-3.43-5.554.03-.097-.692-1.178-1.495-2.149-.945-1.141-2.105-2.483-2.914-3.269-.662-.693-22.29.094-22.29.094-1.223 1.113-3.298 3.605-4.33 5.294 1.146-.42 13.42-1.743 21.694-1.822 0 0 4.848.41 7.041 1.836.617.4 1.93 1.603 1.93 1.603z" stroke="#000" stroke-width=".265"/><path d="M193.372 119.012l2.517-2.107 4.478-2.226 1.631-.096s5.887.042 8.752 1.297c.923.405 2.307 1.765 2.307 1.765s-2.577 3.418-4.868 3.797c-4.255.706-14.303-1.442-14.377-1.794-.011-.055.817.622.817.622s3.17.755 5.692 1.247c2.922.57 6.448.704 6.577.704.07 0 1.13.046 2.396-.513 1.176-.52 1.68-.619 2.474-1.245.737-.58 1.128-.956 1.708-1.68.412-.513 1.019-1.679 1.019-1.679s-1.122-.604-1.675-.92c-.588-.336-1.131-.76-1.745-1.038a3.43 3.43 0 0 0-.385-.148c-3.014-.95-9.049-.997-9.468-.997-.137 0-.754.31-1.523.728-1.584.86-3.81 2.176-3.81 2.176z" stroke="#000" stroke-width=".258"/><circle cx="204.425" cy="117.823" r="3.213" fill="#abcdd1" stroke="#000" stroke-width=".265" stroke-linecap="round" stroke-linejoin="round"/><path style="line-height:normal;font-variant-ligatures:normal;font-variant-position:normal;font-variant-caps:normal;font-variant-numeric:normal;font-variant-alternates:normal;font-feature-settings:normal;text-indent:0;text-align:start;text-decoration-line:none;text-decoration-style:solid;text-decoration-color:#000;text-transform:none;text-orientation:mixed;shape-padding:0;isolation:auto;mix-blend-mode:normal" d="M207.766 114.888s-2.35-.049-3.524-.099c-1.186-.05-3.555-.2-3.555-.2" color="#000" font-weight="400" font-family="sans-serif" white-space="normal" overflow="visible" opacity=".98" fill="none" stroke="#000" stroke-width=".7" stroke-linecap="round" stroke-linejoin="round"/><path d="M170.602 119.09l-3.43-2.807-4.028-2.076a1.44 1.44 0 0 0-.367-.142c-.56-.114-1.717-.052-1.717-.052s-5.889.5-8.755 1.727c-.924.396-2.308 1.266-2.308 1.266s2.834 3.72 5.126 4.092c4.257.69 14.845-1.678 14.873-1.875.008-.055-1.64.484-1.64.484s-3.094.781-5.617 1.262c-2.924.557-6.256.926-6.385.926-.07 0-.924-.007-2.19-.554-1.177-.508-1.772-.714-2.567-1.326-.737-.567-1.44-1.188-2.02-1.895-.412-.503-1.165-2.132-1.165-2.132s1.15-.37 1.712-.593c.63-.25 1.242-.56 1.856-.832.125-.055.253-.104.385-.145 3.015-.928 9.052-.974 9.472-.974.42 0 6.247 3.587 6.247 3.587z" stroke="#000" stroke-width=".255"/><circle cx="159.196" cy="117.19" r="3.213" fill="#abcdd1" stroke="#000" stroke-width=".265" stroke-linecap="round" stroke-linejoin="round"/><ellipse cx="-159.369" cy="116.799" transform="scale(-1 1)" rx="1.978" ry="1.889" opacity=".93"/><path style="line-height:normal;font-variant-ligatures:normal;font-variant-position:normal;font-variant-caps:normal;font-variant-numeric:normal;font-variant-alternates:normal;font-feature-settings:normal;text-indent:0;text-align:start;text-decoration-line:none;text-decoration-style:solid;text-decoration-color:#000;text-transform:none;text-orientation:mixed;shape-padding:0;isolation:auto;mix-blend-mode:normal" d="M155.525 114.439s2.619-.367 3.936-.364c1.38.003 4.12.4 4.12.4" color="#000" font-weight="400" font-family="sans-serif" white-space="normal" overflow="visible" opacity=".98" fill="none" stroke="#000" stroke-width=".5" stroke-linecap="round" stroke-linejoin="round"/><ellipse cx="-158.762" cy="116.303" rx=".294" ry=".162" transform="scale(-1 1)" opacity=".93" fill="#fff" fill-opacity=".958"/><path d="M165.116 160.768s12.307-1.258 14.122-.964c1.066.173 2.246 1.295 3.263 1.275 1.08-.022 2.319-1.026 3.455-1.117 1.622-.13 14.142 2.592 14.142 2.592s-4.124 4.454-4.703 5.268c-.874 1.227-2.391 2.68-3.93 3.539-1.547.863-3.35 1.214-5.1 1.495-1.966.317-5.971.201-5.971.201s-5.723-.095-8.059-2.02c-1.193-.983-1.88-2.508-2.679-3.831-.743-1.231-4.54-6.438-4.54-6.438z" fill="#c9c4be" stroke="#000" stroke-width=".265"/><path d="M165.116 160.768s7.316 3.167 13.498 4.574c1.88.428 5.302.22 7.29.353 5.478.368 14.194-3.14 14.194-3.14" fill="#c9c4be" stroke="#000" stroke-width=".265"/><path d="M229.703 115.698s3.804 1.35 4.935 5.08c1.167 3.85.864 10.008 1.009 12.935.246 4.964-.583 9.407-2.712 13.898-1.764 3.722-7.402 10.018-7.402 10.018" fill="none" stroke="#000" stroke-width=".265"/><path d="M230.772 121.848s2.115-1.165 2.382.68c.663 4.577 1.038 14.245.629 16.948-.285 1.873-6.197 12.415-6.197 12.415M130.451 115.182s-1.392.14-2.319 1.45c-1.335 1.886-3.075 4.584-3.613 6.52-1.252 4.503-1.582 9.34-1.017 13.98.463 3.799 1.421 7.559 2.756 11.145.954 2.562 3.428 5.521 4.375 6.761.78 1.02 4.937.702 4.937.702" fill="none" stroke="#000" stroke-width=".265"/><path d="M130.545 119.746s-.667-1.977-1.466-1.584c-.851.419-2.674 4.115-3.3 6.446-1.114 4.153-1.376 8.643-.66 12.883.576 3.402 2.166 6.603 3.896 9.588.47.812 1.738 2.217 1.738 2.217" fill="none" stroke="#000" stroke-width=".265"/><path d="M178.365 169.073c-.09.858-1.418 1.422-2.965 1.26-1.547-.164-2.728-.992-2.637-1.851.09-.859 1.177.229 2.724.392 1.547.163 2.968-.66 2.878.199z" fill="#fff" fill-opacity=".958"/><path d="M187.269 150.566l1.652-1.08-.084-.466-2.31.423-2.16 1.95s-.477.776-.87.953c-.804.363-1.827.37-2.647.042-.937-.374-2.161-2.118-2.161-2.118s-.74-.694-1.188-.91c-.372-.18-.774-.26-1.185-.298-.45-.042-1.356.053-1.356.053s-.04.373.122.464c1.69.4 1.81 1.989 2.614 1.57.142-.555.79.03 1.344.592.618.642.991 1.241 1.689 1.386.433.09 1.001.164 1.441.222.475.063 1.104-.242 1.52-.48.622-.354.647-.392.946-.665.848-.775 1.3-1.73 1.504-1.59.203.14.25.153.378.228.127.075.751-.276.751-.276z" fill="#030000" stroke="#000" stroke-width=".1"/><path d="M177.457 117.038s.371 5.055.706 7.69c.176 1.379-.2 4.303-.2 4.303" fill="none" stroke="#000" stroke-width=".086"/><path d="M188.89 117.201s-1.195 4.53-1.72 7.169c-.257 1.291-.392 4.541-.392 4.541" fill="none" stroke="#000" stroke-width=".085"/><ellipse cx="-203.519" cy="116.952" rx=".298" ry=".204" transform="scale(-1 1)" opacity=".93" fill="#fff" fill-opacity=".958"/><path d="M197.142 116.319s-1.352 1.421-1.369 2.153c-.033 1.436.59 1.854.59 1.854" fill="none" stroke="#000" stroke-width=".206"/><path d="M166.136 115.907s1.303 1.39 1.32 2.107c.031 1.405-.532 1.905-.532 1.905" fill="none" stroke="#000" stroke-width=".2"/><path d="M168.294 242.178c-9.25-.59-18.473-4.302-27.225-10.91-1.015-.766-2.814-2.283-4.563-3.927-2.48-2.332-4.925-4.895-5.456-5.72-.127-.196-.357-.391-.405-.543-.18-.57.767-1.33 4.851-5.792 2.799-3.056 4.175-5.202 4.878-7.603.188-.645.657-6.76 1.042-13.59.385-6.828.518-13.122.575-13.18.057-.056 1.194.95 2.073 1.636.88.686 4.567 3.416 8.194 6.067 3.045 2.225 5.486 3.998 7.26 5.615.811.74 1.401 1.59 1.992 2.182 4.798 4.815 7.258 6.323 11.7 7.611 2.062.598 2.815.726 8.365.712 6.425-.016 9.543-.352 12.407-1.335 2.937-1.01 4.635-2.631 10.328-8.597a49.552 49.552 0 0 1 2.263-2.24c1.632-1.508 3.793-3.3 5.569-4.771 2.821-2.338 6.233-5.106 7.502-6.326 1.345-1.293 2.21-2.495 2.113-2.153-.33 1.16-1.351 9.684-1.637 13.231-.345 4.29-.033 10.289 1.041 19.974.403 3.628.805 7.002.895 7.5.177.939.121 1.343-1.454 3.433-3.934 5.221-9.627 9.779-15.538 12.723-7.488 3.73-15.747 5.704-26.075 6-2.902.083-5.803.198-6.367.239-.565.04-2.555-.122-4.328-.236z" fill="#fef9ee" stroke="#000" stroke-width=".265" stroke-linecap="round" stroke-linejoin="round"/><path d="M132.047 155.454c-.902-.174-1.146-.361-2.118-1.621-1.269-1.645-2.52-3.538-3.039-4.601-1.199-2.455-2.61-7.738-3.206-12.009-.26-1.852-.258-7.174 0-9.016.63-4.477 1.277-6.346 3.29-9.516 1.478-2.323 2.092-2.96 3.135-3.24l.397-.107 1.87 1.826c1.028 1.004 1.9 1.796 1.936 1.76.037-.036.214-.633.394-1.327l.327-1.263.01 1.555c.006.855-.086 7.52-.205 14.812-.2 12.209-.204 13.373-.054 14.716.09.803.279 2.718.42 4.257.142 1.54.285 3.043.32 3.342l.062.545-1.537-.012c-.844-.006-1.745-.052-2.002-.101zm-1.45-6.61c-1.677-2.029-3.292-4.978-4.406-8.046-1.564-4.306-1.701-10.312-.358-15.626.362-1.43.843-2.694 1.622-4.262.974-1.96 1.607-2.76 2.014-2.542.202.108.57.646.792 1.16.12.273.44.4.44.174 0-.252-.583-1.272-.859-1.505-.559-.47-1.02-.264-1.722.77-.507.747-1.424 2.58-1.926 3.85-.682 1.726-1.247 4.3-1.509 6.875-.164 1.613-.076 5.749.155 7.22.465 2.976 1.585 5.959 3.522 9.38.885 1.561 2.192 3.22 2.402 3.046.119-.098.09-.183-.168-.495zM225.951 155.996c.798-6.528.998-10.735 1.02-21.453.012-6.042.08-10.258.153-9.368.126 1.552.255 2.004.502 1.757.063-.063.528-2.517 1.032-5.454.505-2.937.962-5.384 1.016-5.438.151-.151 1.944.955 2.798 1.727 2.241 2.024 2.916 5.618 2.914 15.51 0 5.502-.26 7.598-1.344 10.836-1.195 3.574-2.502 5.807-5.748 9.825-2.71 3.354-2.476 3.149-2.343 2.058zm3.743-7.474a189.626 189.626 0 0 0 3.068-5.954l1.278-2.636-.014-5.7c-.013-5.522-.305-10.258-.732-11.875-.252-.955-.853-1.252-1.93-.954-1.082.298-.91.6.26.462 1.193-.141 1.177-.165 1.472 2.265.58 4.787.814 13.383.414 15.249-.246 1.149-2.26 5.358-4.6 9.61-1.4 2.547-1.69 3.272-1.174 2.954.092-.057.973-1.597 1.958-3.421z" fill="#fef9ee"/><path d="M17.81 370.14c.188-2.018.885-9.869 1.549-17.446 3.034-34.616 7.842-62.073 13.285-75.873 2.02-5.118 2.362-5.583 8.9-12.065 10.921-10.83 21.814-18.158 41.387-27.84 12.47-6.17 26.255-11.869 38.24-15.81l6.583-2.166 6.021 6.12c11.121 11.3 21.73 16.626 35.335 17.738 9.812.802 25.278-1.414 33.232-4.762 7.313-3.078 14.64-8.91 19.585-15.588l2.026-2.736 7.753 2.049c37.083 9.796 55.262 15.379 70.092 21.527 9.905 4.106 12.2 5.467 15.66 9.288 5.767 6.37 15.159 22.742 19.831 34.569 5.416 13.708 10.172 44.627 11.852 77.056l.399 7.697-35.572.437c-19.564.24-35.672.337-35.795.214-.122-.122.823-3.915 2.102-8.427 3.329-11.747 4.38-16.814 6.344-30.581 2.05-14.37 2.672-19.96 2.17-19.497-.2.184-1.167 6.384-2.15 13.777-2.135 16.086-3.681 23.977-7.01 35.782l-2.498 8.858-89.39.435c-56.718.276-89.595.23-89.95-.125-.89-.889-5.113-13.294-6.958-20.431-2.063-7.986-3.661-19.172-5.268-36.873-.673-7.416-1.322-13.748-1.443-14.07-1.257-3.362 1.995 30.716 4.062 42.569 1.008 5.78 4.083 16.746 6.71 23.925.993 2.716 1.742 4.988 1.663 5.049-.078.06-17.905.28-39.615.49l-39.472.38zM178.662 172.77c-3.292-.364-5.178-1-6.61-2.23-.95-.817-1.614-1.64-2.593-3.219-.428-.69-1.46-2.332-2.29-3.649-.833-1.316-1.513-2.416-1.513-2.444 0-.027.245.057.544.19 1.65.725 6.26 2.373 8.576 3.066 4.24 1.268 4.822 1.337 11.503 1.373 4.91.027 6.007-.042 10.235-.646 1.126-.16 2.056-.283 2.07-.271.012.011-.476.391-1.085.844-1.164.866-1.806 1.47-3.22 3.029-1.973 2.176-3.863 3.147-7.326 3.766-1.053.188-1.722.226-4.353.252-1.71.017-3.482-.01-3.938-.061zm-1.501-2.546c.703-.208 1.242-.715 1.242-1.169 0-.413-.258-.483-1.23-.332-1.258.195-1.8.147-3.022-.27-.974-.332-1.144-.363-1.295-.238-.246.205-.13.783.232 1.165.334.351 1.1.765 1.661.898.637.15 1.816.124 2.412-.053z" fill="none"/><path d="M178.662 172.77c-3.292-.364-5.178-1-6.61-2.23-.95-.817-1.614-1.64-2.593-3.219-.428-.69-1.46-2.332-2.29-3.649-.833-1.316-1.513-2.416-1.513-2.444 0-.027.245.057.544.19 1.65.725 6.26 2.373 8.576 3.066 4.24 1.268 4.822 1.337 11.503 1.373 4.91.027 6.007-.042 10.235-.646 1.126-.16 2.056-.283 2.07-.271.012.011-.476.391-1.085.844-1.164.866-1.806 1.47-3.22 3.029-1.973 2.176-3.863 3.147-7.326 3.766-1.053.188-1.722.226-4.353.252-1.71.017-3.482-.01-3.938-.061zm-1.501-2.546c.703-.208 1.242-.715 1.242-1.169 0-.413-.258-.483-1.23-.332-1.258.195-1.8.147-3.022-.27-.974-.332-1.144-.363-1.295-.238-.246.205-.13.783.232 1.165.334.351 1.1.765 1.661.898.637.15 1.816.124 2.412-.053z" fill="none"/><path d="M178.799 172.716c-5.393-.48-6.889-1.55-10.714-7.66-1.25-1.994-2.254-3.647-2.233-3.673.022-.025 1.095.37 2.386.88 2.509.989 5.793 2.085 8.82 2.943 1.756.498 2.22.536 7.775.624 5.628.09 8.751-.082 12.685-.697l.891-.14-1.14.899c-.627.493-1.98 1.757-3.005 2.807-2.768 2.834-4.733 3.66-9.61 4.037-2.7.21-3.305.208-5.855-.02zm-1.22-2.633c.526-.263.743-.52.791-.939l.066-.576-1.62.135c-1.26.105-1.8.06-2.424-.201-1.415-.593-1.989-.382-1.555.571.21.46.793.85 1.84 1.228.67.242 2.212.126 2.901-.218z" fill="none"/><path d="M179.858 165.265c-2.26-.246-9.04-2.341-12.708-3.928l-.868-.375.726-.127c1.453-.254 8.315-.753 10.352-.753 1.927 0 2.183.05 3.257.622.64.342 1.333.622 1.538.622.205 0 1.02-.233 1.81-.518 1.84-.664 2.43-.652 4.816.095 2.568.804 9.523 3.395 9.524 3.547 0 .066-1.235.29-2.746.5-3.046.423-12.892.62-15.7.315z" fill="none"/><path d="M179.858 165.265c-2.26-.246-9.04-2.341-12.708-3.928l-.868-.375.726-.127c1.453-.254 8.315-.753 10.352-.753 1.927 0 2.183.05 3.257.622.64.342 1.333.622 1.538.622.205 0 1.02-.233 1.81-.518 1.84-.664 2.43-.652 4.816.095 2.568.804 9.523 3.395 9.524 3.547 0 .066-1.235.29-2.746.5-3.046.423-12.892.62-15.7.315z" fill="none"/><path d="M179.858 165.265c-2.26-.246-9.04-2.341-12.708-3.928l-.868-.375.726-.127c1.453-.254 8.315-.753 10.352-.753 1.927 0 2.183.05 3.257.622.64.342 1.333.622 1.538.622.205 0 1.02-.233 1.81-.518 1.84-.664 2.43-.652 4.816.095 2.568.804 9.523 3.395 9.524 3.547 0 .066-1.235.29-2.746.5-3.046.423-12.892.62-15.7.315z" fill="none"/><path d="M134.906 140.658s2.712 11.441 5.49 16.546c1.53 2.811 6.01 7.49 6.01 7.49" fill="none" stroke="#000" stroke-width=".2"/><path d="M135.015 140.667s1.262 13.25 4.596 18.756c2.35 3.882 10.215 9.001 10.215 9.001" fill="none"/><path d="M140.355 158.845c-1.578-2.365-3.704-6.49-4.757-12.881-.222-1.344-.749-3.516-.684-4.395.014-.197.751 2.414.875 2.89 1.452 5.57 3.204 10.306 4.486 12.622.67.947.933 1.566 1.566 2.374.736.94 1.419 2.003 2.196 2.808.8.829 1.824 1.846 2.205 2.463.115.186-.073.13-.073.13-2.178-1.71-3.956-3.307-5.814-6.01z" fill="#c9c4be"/><path d="M137.389 124.149l.538 15.243-3.607-.217-4.843-18.228-2.859.148-3.834-3.42-11.09-9.95 4.871.83-.621-9.535-2.28-9.327 1.658-4.56 3.938 7.047 7.259 2.174c.286-14.307-2.303-21.883-6.426-28.888l-2.077-9.635 4.56 7.124 3.731 4.353-3.109-5.466 2.487-11.815 18.24-15.223 3.11 1.659 11.4-7.67h5.803l8.29 8.291.83-6.425.622-3.731 8.912-.415s10.157 3.731 11.4 4.56c1.244.83 7.67 2.902 7.67 2.902.296-.774 5.803-6.425 5.803-6.425l4.378.48 14.195 6.714 3.255.384 2.46 4.667 5.33 4.837-.585 7.621 3.722-7.104 1.53 6.426-1.809 10.302.311 3.316-.103 5.674s-.764 3.903-1.594 4.317c-.829.415 3.317 17.204 3.317 17.204l1.658 4.56-.207 12.85-3.317 3.11-4.041 8.394-7.255 4.871-2.645 13.748c-2.512.56-3.97-.069-3.97-.069l1.33-15.544.207-21.35-7.047-14.094-11.607-2.28-15.546 2.28c1.274 3.967-4.42 3.396-6.912 4.972-1.996 1.263 1.995-6.186-1.275 2.8l2.28 6.84c-2.453-2.314-2.107-3.33-3.835-4.87l-2.901-4.56s-3.476-3.712.876 7.38c1.22 3.11 6.053 7.989 6.053 7.989s-3.27-2.203-5.308-3.895c-2.299-1.91-3.397-3.395-3.397-4.603 0-2.28-1.54-9.773-1.54-9.773l-13.655-4.709-3.135-3.375-6.218 5.39-9.549 15.434-3.622 9.683z" fill="#020202" stroke="#000" stroke-width=".265"/><path d="M205.278 86.584s3.86-6.176-2.15-13.562C192.35 62.866 182.262 55.69 167.79 50.027" fill="none" stroke="#fff" stroke-width=".265"/><path d="M135.362 111.379s-5.37-3.446-7.614-6.37c-1.677-2.186-4.339-8.607-4.339-8.607M144.759 99.737s-9.308-7.228-11.552-10.153C131.53 87.399 125.5 80.2 125.5 80.2" fill="none" stroke="#fff5f5" stroke-width=".265"/><path d="M189.34 90.994s-4.94-10.577-8.368-14.392c-7.063-7.86-14.89-16.153-29.361-21.816M165.003 88.528s-4.94-10.577-8.368-14.392c-7.064-7.86-15.77-12.049-30.241-17.712M216.885 88.864s13.856-5.995 18.11-11.812c5.203-7.113 7.054-25.477 7.054-25.477M223.882 104.486s8.575-4.709 11.955-8.149c2.942-2.994 6.908-10.527 6.908-10.527" fill="none" stroke="#fff" stroke-width=".265"/><ellipse cx="-204.598" cy="117.64" transform="scale(-1 1)" rx="1.978" ry="1.889" opacity=".93"/><ellipse cx="-203.991" cy="117.299" rx=".294" ry=".162" transform="scale(-1 1)" opacity=".93" fill="#fff" fill-opacity=".958"/><path d="M223.691 114.263s8.575-4.708 11.955-8.148c2.942-2.994 6.908-10.527 6.908-10.527M211.633 89.543s11.38-12.669 14.3-20.46c3.996-10.66 3.66-33.955 3.66-33.955" fill="none" stroke="#fff" stroke-width=".265"/></g></svg>