<?xml version="1.0" standalone="no"?>
<!DOCTYPE svg PUBLIC "-//W3C//DTD SVG 20010904//EN"
 "http://www.w3.org/TR/2001/REC-SVG-20010904/DTD/svg10.dtd">
<!--suppress ALL, XmlHighlighting -->
<svg version="1.0" xmlns="http://www.w3.org/2000/svg"
 width="640.000000pt" height="640.000000pt" viewBox="0 0 640.000000 640.000000"
 preserveAspectRatio="xMidYMid meet">
<metadata>
Created by potrace 1.11, written by Peter Selinger 2001-2013
</metadata>
<g transform="translate(0.000000,640.000000) scale(0.100000,-0.100000)"
fill="#000000" stroke="none">
<path d="M3192 5742 c-12 -16 -73 -121 -130 -222 -13 -25 -33 -56 -42 -70 -10
-14 -19 -29 -21 -35 -1 -5 -13 -28 -26 -50 -71 -120 -203 -348 -203 -350 0 -1
-52 -92 -116 -201 -64 -110 -129 -223 -145 -252 -17 -29 -43 -74 -59 -100 -16
-26 -43 -74 -60 -107 -18 -33 -39 -67 -46 -76 -8 -8 -14 -18 -14 -21 0 -3 -80
-145 -178 -314 -98 -170 -185 -320 -193 -334 -8 -14 -16 -27 -19 -30 -3 -3
-11 -16 -18 -30 -6 -14 -16 -32 -22 -40 -8 -13 -338 -585 -524 -910 -33 -58
-63 -107 -67 -110 -3 -3 -9 -15 -13 -27 -4 -13 -13 -29 -19 -35 -7 -7 -20 -29
-29 -48 -10 -19 -22 -42 -28 -50 -5 -8 -53 -89 -105 -180 -52 -91 -99 -170
-105 -177 -5 -7 -10 -15 -10 -18 0 -4 -34 -66 -77 -138 -42 -73 -84 -146 -93
-163 -10 -16 -52 -91 -95 -165 -43 -74 -120 -208 -173 -299 -52 -91 -103 -180
-114 -197 l-20 -33 2772 0 2772 0 -22 38 c-22 35 -35 59 -80 137 -11 19 -28
50 -39 67 -10 18 -27 49 -37 68 -11 19 -22 37 -25 40 -6 5 -21 32 -51 90 -7
14 -18 31 -25 38 -7 7 -16 24 -19 38 -3 13 -10 24 -14 24 -4 0 -10 8 -13 18
-4 9 -18 37 -33 62 -15 25 -36 61 -47 80 -11 19 -28 49 -38 65 -10 17 -23 39
-29 50 -5 11 -21 38 -35 60 -13 22 -31 54 -40 70 -23 44 -39 71 -54 89 -7 9
-10 16 -5 16 5 0 5 4 -1 8 -13 9 -43 60 -56 95 -6 15 -15 27 -19 27 -4 0 -13
12 -19 28 -6 15 -22 45 -36 67 -14 22 -30 51 -37 65 -7 14 -15 27 -18 30 -4 4
-23 38 -54 95 -6 11 -15 23 -21 27 -7 5 -7 8 0 8 6 0 5 3 -1 8 -11 7 -34 46
-56 95 -7 15 -16 27 -20 27 -4 0 -8 5 -8 10 0 6 -24 50 -53 98 -29 49 -61 104
-70 123 -10 19 -27 48 -37 64 -11 17 -25 42 -31 58 -6 15 -15 27 -19 27 -5 0
-12 10 -16 23 -3 12 -13 30 -22 40 -8 9 -12 17 -8 17 4 0 0 7 -8 16 -9 8 -16
22 -16 30 0 8 -4 14 -9 14 -5 0 -14 12 -20 28 -16 37 -44 86 -53 90 -5 2 -8 8
-8 13 0 5 -10 26 -23 47 -26 41 -84 144 -101 179 -6 13 -14 23 -18 23 -5 0 -8
5 -8 11 0 6 -20 44 -45 85 -25 40 -45 78 -45 84 0 5 -5 10 -11 10 -5 0 -7 4
-4 10 3 6 2 10 -2 10 -5 0 -13 9 -18 19 -6 11 -19 36 -30 58 -10 21 -25 44
-32 51 -7 7 -13 18 -13 23 0 5 -15 32 -33 61 -18 29 -38 64 -45 78 -7 14 -23
43 -37 65 -14 22 -31 51 -38 65 -6 14 -17 31 -24 38 -7 7 -13 20 -13 28 0 8
-5 14 -11 14 -5 0 -7 5 -4 10 3 6 2 10 -4 10 -6 0 -13 11 -17 25 -3 14 -10 25
-15 25 -5 0 -9 4 -9 10 0 8 -71 137 -100 180 -6 8 -14 24 -20 35 -5 11 -21 38
-35 60 -14 22 -29 50 -34 62 -5 11 -15 24 -21 28 -5 3 -8 11 -5 16 4 5 2 9 -3
9 -5 0 -12 8 -15 18 -4 9 -17 35 -31 57 -14 22 -33 56 -43 75 -9 19 -23 41
-30 48 -7 7 -13 20 -13 28 0 8 -5 14 -12 14 -6 0 -9 3 -6 6 3 3 -9 29 -28 57
-19 28 -34 57 -34 64 0 7 -4 13 -9 13 -5 0 -14 12 -20 28 -10 27 -41 83 -52
92 -3 3 -13 21 -23 40 -9 19 -23 44 -29 55 -7 11 -29 48 -50 83 -20 35 -37 67
-37 73 0 5 -4 9 -9 9 -5 0 -11 8 -14 18 -7 20 -62 116 -88 153 -10 14 -16 29
-12 33 3 3 1 6 -5 6 -7 0 -12 6 -12 14 0 8 -6 21 -13 28 -7 7 -19 27 -28 45
-14 29 -16 30 -27 15z"/>
</g>
</svg>
